<svg width="25" height="25" viewBox="0 0 25 25" fill="none" xmlns="http://www.w3.org/2000/svg">
<path d="M8.59453 18.1094L7.03203 16.5461L5.92969 17.6477L8.59453 20.3125L13.282 15.625L12.1805 14.5234L8.59453 18.1094ZM21.8758 23.4375H18.7508V21.875H21.8758V12.5H18.7508V6.25C18.7497 5.42152 18.4202 4.62726 17.8343 4.04143C17.2485 3.45561 16.4543 3.12603 15.6258 3.125V1.5625C16.8685 1.56395 18.06 2.05827 18.9387 2.93704C19.8175 3.8158 20.3118 5.00724 20.3133 6.25V10.9375H21.8758C22.2901 10.9379 22.6872 11.1027 22.9802 11.3956C23.2731 11.6885 23.4379 12.0857 23.4383 12.5V21.875C23.4379 22.2893 23.2731 22.6865 22.9802 22.9794C22.6872 23.2723 22.2901 23.4371 21.8758 23.4375Z" fill="#9AA4B2"/>
<path d="M15.625 10.9375H14.0625V6.25C14.0625 5.0068 13.5686 3.81451 12.6896 2.93544C11.8105 2.05636 10.6182 1.5625 9.375 1.5625C8.1318 1.5625 6.93951 2.05636 6.06044 2.93544C5.18136 3.81451 4.6875 5.0068 4.6875 6.25V10.9375H3.125C2.7106 10.9375 2.31317 11.1021 2.02015 11.3951C1.72712 11.6882 1.5625 12.0856 1.5625 12.5V21.875C1.5625 22.2894 1.72712 22.6868 2.02015 22.9799C2.31317 23.2729 2.7106 23.4375 3.125 23.4375H15.625C16.0394 23.4375 16.4368 23.2729 16.7299 22.9799C17.0229 22.6868 17.1875 22.2894 17.1875 21.875V12.5C17.1875 12.0856 17.0229 11.6882 16.7299 11.3951C16.4368 11.1021 16.0394 10.9375 15.625 10.9375ZM6.25 6.25C6.25 5.4212 6.57924 4.62634 7.16529 4.04029C7.75134 3.45424 8.5462 3.125 9.375 3.125C10.2038 3.125 10.9987 3.45424 11.5847 4.04029C12.1708 4.62634 12.5 5.4212 12.5 6.25V10.9375H6.25V6.25ZM15.625 21.875H3.125V12.5H15.625V21.875Z" fill="#9AA4B2"/>
</svg>
